<mxfile host="app.diagrams.net" agent="Mozilla/5.0 (Windows NT 10.0; Win64; x64) AppleWebKit/537.36 (KHTML, like Gecko) Chrome/128.0.0.0 Safari/537.36" version="24.7.15">
  <diagram name="Page-1" id="-EJMhvwuOj25Puv6Lcc6">
    <mxGraphModel dx="1050" dy="603" grid="1" gridSize="10" guides="1" tooltips="1" connect="1" arrows="1" fold="1" page="1" pageScale="1" pageWidth="827" pageHeight="1169" math="0" shadow="0">
      <root>
        <mxCell id="0" />
        <mxCell id="1" parent="0" />
        <mxCell id="MW7qYl8SPV5p_Aa6ZYsE-1" value="" style="shape=stencil(lZzZkhzHDUW/Zl4rcl+eZfk/FCHKnDBNKijalv7eSE9kT9dF9ynyTWoCVVmZWC4ukPOSf/rj4y+/f3hJ4Y9vX7/888N/X3/99vEl/+0lpdfPHz98ff1m//WSf37JP/325euHf3z98u/Pv779/++/LMn1X//68p/1hD/f9OKR8lJK4a+3H/LR2/9/+Pub+KfXzyfxEk7i9ZiRxGs/ifdjoPg4Pz2GI/Xn8umIIp+OWUk+tbN8OWom+TLP8vXoieT7eTNjw++11ZazvO0PPD8fUeQHnlY+ksjPoxWSz2f5ZR6wfpM/H699UeDnT5WfcL4mP87yZZ/4d66nbvN+Jh/P8u0ovJ/n8zV77mBvdl71LD+OOUk+nL83hyMOlD+fVzb/xO8N6SyfjobrD2f/yhnP63aaN/m6T+Q75c1f0B50PeMo6C+6P/PH9r/Eq/M9r6fki/WofD0i+pfK2/7w+s/+VcZR0Z7j2Z5r2L88s3+J/vEqnoi8nTg+X7PLlb9XWb/ZG55XO9tbbUfD/ezn/azjiGifU+TZ3orGhxaPCfZTjnz+3pbRHoruT6vHAHsoRz/7S+sYD4v6bxv4/Lqj2Q0OhO1xT+QlnveI9lCPIs83hAD7WY963v9uHoTrr1PlJ9h/Pdp5/3vZFvVM/pyPuv2C+6Pwqh0V1yP20Dv6i9/PsXfg2XnJ/sxjgL/Xje62/IiI96rit5F2Bn9mb+f1jIzxsB7hbA+jHAXWU45x3p9xO8En8k3W348A+1PUPsfYJ/59/j4D5pei9jMNP4A9uPVPQ8i4/22qPNlDV/w8M+YjKw8koJsCGbTh/VRVgTzGALlAYlPoEIJSOIpTGPCGlfSmKkxwesOo9YziZsEomqaG9aVAaS/tKudegXBE3W5yr0DAZmglMzNnyuDewLtU0lHHDykU99EXCm3b8vcqjA1+7neJ0pNlu6YKmP8cIDKFRAG7agQzhUYRe2yHvylUNA1DNIIZTYFqDoM0Uz66bRj5WKG5bbVfSGHuovym0LcPPg5LyQWBjjjN0nyVjx5HAtOwvK1xaWz7fazQXege28sfKwwXKg2rwTlY6hbwshRgSZa7Q3MKEARW8nZvaLCtw4fKgfW9pW/96I4EjuXv6U46wi6tBC5LauhAYyiHsMwbjG9MBc1LAd5gOV8PrqF5W1LOSRWorFhxruouUZixoKKhkj1uVheMO1aa77t+f9JgrWY5UuubAvnDckgxDSZz1q5X3VaCDnYOmtgzlptmfJJFB0eNEXRJ5lIEEK3+iFJhWJiBJVlB10WhcDDuytFYjUcQrhU9OCs6E2egdt5Wq4ILZdGpEK5dwNyuCvYI8mlLu02IjobEkSV2cSD7pdE3JC2dDUzQLi2scU6KZXItMHVJhR1ocVFn4zMElQkvdbekwnTHDVnc8XEUl4orBxbhx6hSIp8BU2I41/OEspybxHwGdMWnc8dzWBSodHAqNjVyU3CS896GxwpFabkckMaw+qEKrz6YVw/a+EnsD1bSCLO4uCt4g5WWgirfmwXPqiypRVe3id7gaqAU8aQX+yfdqInmbQsYosCIbHXrpH/VkV+34jWeQ2VkKB1vGPKmUJERswUIxWUlOWVRW0BxClTt2gKkqRMzYu/FCZwPLiaMrdG1yWLkj04KHUwhk0J0jcqAgcz+WfL0xNA6tZEyMMF1rRI70mJtl8G3/Ll5xCfi6SxekeSqeyduIRjxQtm48Ra8ECIVbZElDnVHENu5anBLUNmM4xNxKfIStmOjGnJCww8uJCJCcFxbwsooaFqKSI4ENYKI5WzYG/EuThYZNM/fWIkn4tJ3DjhWEBTNBewahh2D38WpYoxa/wU0YBfzr57em64d5z+mrn1SUnQDGmjASfuREavEpIQDd2vjTmV3FkkxVcluzv/RzR6gNzmyJGHnI+gxpQsDFojHcxlBCYCIYyjmTSpOXZUH4pTLgrJCEXskQYvmgBH4B8Ud5AqI6bJ3D8qrrn8UEYhXrd4jl9bazUoYCRzgzQghujYVmDh2VQp3yqbSag2LoIV/pJOLJX6MmhDGLuGfIThJTxMHbaKbZLAVVkrdRWtdWyK2vlzvPV5Aj7Y7Mncwl3CWQXUhWtZX0RuGy7KFYe7UkukdvD+rT6ShaF+FA4LJ4bOOYXl140SBmftVd8ouzR1NnxWWUmOlgLb9bsp3hSW5mtmyQN73MPas/A6umqZtzVGj6JoDJQrBTSLaIjGQVt0lWySZRu6aZVYXk2bnpoINeyclyRJ2UrwpNJ7WSY43GTsvP1bIyl/ZInFepzg6igcoFuMmClzflK4jUPZOJLymFiGlIqtRgxY59k4kT6NmTXsnIYSatTi2dxJvUos2E+wRhFurIynsF1ySC5X2C01WtqAOtEbFiPVOWsM0Jk+b69G0ju2K9c9C9QduQUalBXvZX/VYoW7/uikMrJeHT+sJM9AY+5huCjzR+z4ucgMCDNxX30oahJWrlOCi8eo2X3SmpNE0EWzY84Q9ncz1r45jUgXy0ekm90yBoO10HLMp0KjDTA/a09TanUFZKVOgRD2mUvfzwvqGsthLgRrgXas6U6CPHm2bzp0CZZRRH2wrfoMbYV22BHFmJDeIMPFKyHCNpjuLfxwGpvO5yeMXw80JTMTG3UEsU6DypDfXPTaHgG3qbnR3HQQpJMfoDg7HU5n1edEXdQXfilXE0+YHTfnASUuN6aLNOTTLWSCh4bla3Whb5VZtdk35yiPIUYHo5Ib2mvKKqkDG92COrGCP/cGkWrnqWuos3IVC0MHfC4U1z1edAvHm1blo4atP7m7VUqDS79HUIwWm1B4sicLMqhXdG2i8dVFb7g2Us2LXXscazyNeo7hpu4K9l0VLuDdgINvZ4E4eobF2smZG3OpjDE/0uitfayQZr0zpKB9zzFnLmXl1RUbC9ri8giOduIZWmrVpvFI8X1lzI+3EvjqbHhdltDrN4AmKrMM4ayYJGVWhVzrnzazR13I79WbdNFHnK4Cuad8rkjFFx/0uroC4iZSeEfy75nXPONtdlMhcQAP7obqeiCOXRcdXrCiMuB4pdhoXwlkxtpWhFeODpL7GAwp5R7+bPF95dFc8G3eV3ACRgSQ6r6RFyDt18EResHJtCCbSBmQ3+YrMtpvZrQXbwEkzWOUrv+6K9rpiyPLCvISL9Yj/XlyRTHq+F1cwk9p/qXgFLbkZt3yx/0JoX0ysRa16DdvRnQNHrq35MmyqCj+YeX9M/vy9F1eEo9InF1eQ4y5h7mhgGhz2z4/cOXLzfHzFKipJlgZegfUTIszCRW1QLhjLz5cr+HxF3tnDxRX8qMMNF1f8/fO5Ve3Xz/koKh6IkyG3Pj8OLALc+RpmpzmXqL2ZNWGH+1NkxqHilG1Uas9KAmIyPBuTL0YFtN0VEJ+7SYSO1XNQONOQGnJUacZ+yQPxjqMF+ucDsPhyw5MZKws3FpGRUg1auGRkL10Fz0OQ7s5IvhpHcU/HtU/3qejjQRdDrFF0jbzdnXwmLhH/YkDqB/9AzoW4/cf73+L57fXTp7c/5XP/7/q3e+ynt7/7k3/+Hw==);lineShape=1;strokeColor=default;" vertex="1" parent="1">
          <mxGeometry x="269.0962868824265" y="122.9807830229405" width="277.9795525350055" height="315.3553414421864" as="geometry" />
        </mxCell>
        <mxCell id="MW7qYl8SPV5p_Aa6ZYsE-2" value="" style="shape=stencil(lVfbchshDP2afdWABAie0/Q/MhOn9tSNM47Ty99X7g62gfVJ9w2zOiDpSAd5kof37dPbZmL3fjoevm9+7Z5P20m+TMy71+3muDvZapLHSR5eDsfNt+Ph4/V5/v32dLY8r34cfp5P+D3jUiJxZxS7P/OOUPb/Nr7O9vvd6619rp+rvY+U9T5APak0AE6kCJAotIDg6s4iIDM5bQAxkmMASFTaGxKThvuAIsSxAShTAjcUJZcagDnJAOCdI9fyUCIJ8ikPgEQZpKmYBy1zdoQHRGSLuk1TKcQOMMeDS4UyiCEW0hZwk4dFRNCa95srUr4PEGNiiLqAG7gMQShpBIBAgXsiBAGknncBBJgmHqrJClIKCDoMMTB5cEOwpu9c8pX8ZeYixbbnioMtlJRKXANQ41XXuJQLRV4TtNEUdE1ardQ0ryHOAL4rPlwadl7sWg4Xn0lZHzQub41UVjVQkqoq/9uj0Q9BYBkwfZdBN5DQiCcZokZSxnFwCYul9WgPwHK8DEAqkOp5t08EusHquy0m01sFMQhXBy7PnJADLllaQ+uStbmgtA5BG5UKOshmhVQagGmbR/VNoVU+n4hBtQ6vaCBOyLzrHnvygPtMpc2PZRicbqG1p18aYzk5TLl13sG28ZfGvdrDElUS6exhOcS+yz55m4V86ew94Cq6Xn+NDpD9mPp309cLl5XLU+rtC6ArhaqcV3ozyM/i6AxmvM9HbVtc5/SX3X4/j/m33/u53rbm/wTy+Bc=);lineShape=1;strokeColor=default;" vertex="1" parent="1">
          <mxGeometry x="210.54648493847208" y="225.9475572257196" width="5.591003087932677" height="45.8586080557626" as="geometry" />
        </mxCell>
        <mxCell id="MW7qYl8SPV5p_Aa6ZYsE-3" value="" style="shape=stencil(lVfbchshDP2afdWAAIGe0/Q/MhOn9tS1M457+/vK3ZIs4J613/aiA0Ln6MIUHt62T6+bid3b+XT8uvm5ez5vp/BpYt4dtpvT7mxPU3icwsPL8bT5cjp+PzzP769PF8vL07fjj8sKv2Zc9hTiBcXu9/yFKae/Hz7P9vvdYWEvhYQbex+IAwAISWo3COQdAKS6XgWERIkBIJLXBhCVHAIEKtIAklCK8AxcGoB4yugMFqXWJVvCgR0yk7ZRyoFcAQCh0LqUlbz/P6AwxZa4IjUM1wGFcruDmlbAoVUptMSpHRpIwwDSATJ5QJymqs13QCGPz+BaHmxPyEOmmHuAZCg+HXZQQFzypMMOCjIu6HBopQRc4jGshQpwyVJepOdBwQ7+3YEF0wrEx46k01KiAphm+92FNVIBWgqRJPYAVASiadO3gEBRAXGlOrAAMABYac0DIALxlUBBe4CiBGJK0h8a1SUTwr8MXvAgQBreOXIdQiiDlDPpxI7qDKm2quLawmReZqC+4omHDELMiV4BKHApDfV+EYfragqD/LSyf12v3HcIA3ggDo5DzhUoP8s5P1RXRnXDVQduBJiYOo+YHJCGqbV1qJhWQFAH6a20OMuudv21Hnpnk/auDi43jgGe6+By46BhgPtGGe/Jt81hZVjSviatTGO5JvuN416qEbxxnOyLMEPGrAS3q3uKQHDmazckOdimrK8F6ewjyhip9fzDHo0j1qTYdfawqgxyWLHXforE/qTcl158XhucXe8/iqfkqvbb+MquryhYDvdeXtbt7eHjpvSy2+/ni9byf3+zsk/zrSw8/gE=);lineShape=1;strokeColor=default;" vertex="1" parent="1">
          <mxGeometry x="378.3490759112301" y="443.6327849350009" width="5.370434925161817" height="64.35802987967077" as="geometry" />
        </mxCell>
        <mxCell id="MW7qYl8SPV5p_Aa6ZYsE-4" value="" style="shape=stencil(7VnLchw3DPyavaL4AgmeHec/XGU5UkWRXLKcxH/vnmxxMgR3WvEtB9/2AcwQQKPRJC/53Zf7D5/vLil8eX15/v3ur4ePr/eX/MslpYen+7uXh1d8uuT3l/zu0/PL3W8vz1+fPl6/f/6wWW6f/nj+c3vC31e/IFE3pxS+XX9IJsn++eXXq/3jw9PBPkurs30UK+f2bfw77KOK1nP7mCT1yaGLkufHKrFN9iqN2CPgnCb7LKkR+yI1zAFIJevPwa8niLJ8Ih3d2cdwbl+ixOzsA7NvPt4gieRH81IwCXpuX4NUmwEhhaynNulxsi8SI8FPkTY/v46E3bQ3rGfOT5dMnm+Ay2wPBGYSgHXp84I2CKZzh54XBPWxxtsOVepcAmC0kBp0E3NNaXRJMeyg2bsgSWdBIOoZphmFZEHYaMO9zmg00jhr1MUkMAckZXbQNH65XbnmuUsbxZ4tXFGjNJKllkbad4cqhThUYGOm3xalkCVpHWy4O+h4xG2HKOre0CUQQgJhlDkGQ0MQhixFwgwN9FRhDmDQmQLMaEPkPkbS3tOoA3kDsBnnLHWlaM1I6xw08JtI4eDg5uYGeLakfeztDp0ScS5i0TtUtqQ8Qjw4GBs9aPl5VB144bZH9CzQdzY8cwi6rIngG+MzLVEriXqTB8E7sKYGNbqoUbnKHWr1DoFJDBsTf3dolL/h4GYQyNCYyEDLObgW6cShJM+VHcVnsgFT0xUuUh2jyxztQRoZ1BAOHkuBUl9VrxzgwHoU0qGYd6CjPUouPmhWaatDWxyzRGJA1h25bm8gacWQ60sMrHAgOm3LG9igbl4KwKGwuWt+yCGq+IY8cdDIA79nYsOzRh5g+Y9iY+sHUjgE3V1PK0UrGrK5tFYqNvC8HLyDcZnYoneglUbWq3eoZAQBOX6i1DEnz6SuJZ+lTNAKh9R8HZgU2BzcG/Lg8zOH6lgj0f1kX/cDXDvgbz9G45hJpzrUoTVwLa0LvOHAGqh6DbctiaG1DTAfHCiWzOtQpJUp3a1Fl55m+2K8obt+KHwXZAuWQG2cyNLScYmlVW/0Q2Nv+FEHCGEP70Z3o9DmaVECTP607PcDWCQjAWxI/PkK72nskVYHVmmNS6UrPVIquszpRvc0P9X6T7VOHP5vaj3thT1QH5tZwEacs7QdOrHtq3q+hzJtrNLmoWGZThRsIGyug4VxEHl2jKAzNBqyRNCqyWcJ3MZOEnVJa+3jJOI29Zkn15rprgkrDnMMylnAkj/M1UJFnzW/gdDA527woq80SgKY425Qlzcme/LEtJ30MaWb/Okj8EslWfRcuZ3RcpXoKp2UQsOWmZUS3QQB/a6BolH6BvrdCIpcnbRlBEXkjaC1LfvjGMacPNsfu1Myo2ePan6HUinJoEGdvtJxnnqbAarflCnd9WFIF4dUqjO2qyV1z2dCJkXfOo0SUmxLiQNNUMwDAbtDpXdjeF5YDvoDk4djVh4ahx3KoAJzhjCwAxOHfpzDvhCMqg8Y9ozuip+cmZ+vZD90YM82rGm5pIhcXfiexPrZQIiDdQ72leQ/+Lsr2DP5v9w3bNKBSJEwLkiORErys9z6gCKYvvvRy+G37fHh35voTw+Pj9eL7OP//uYaP11vvfP77w==);lineShape=1;strokeColor=default;" vertex="1" parent="1">
          <mxGeometry x="443.2847174628655" y="146.75671050850235" width="52.77148338569464" height="86.55815657314258" as="geometry" />
        </mxCell>
      </root>
    </mxGraphModel>
  </diagram>
</mxfile>
